<svg width="164" height="40" viewBox="0 0 164 40" fill="none" xmlns="http://www.w3.org/2000/svg"><path d="M44.7895 23.4684C44.7519 21.4149 43.2869 19.712 41.3336 19.2237L41.3085 17.9214C41.3085 17.9214 41.3085 17.671 41.296 17.671L41.1708 13.5139C41.0456 9.51956 37.4394 5.85078 33.5452 5.91339L31.2538 5.96347C31.2538 5.97599 13.0852 6.22642 13.0852 6.22642L10.7938 6.25147C6.87459 6.28903 3.30598 10.3209 3.34355 14.1525L3.33103 18.1844V18.4348L3.34355 19.7371C1.40272 20.2629 -0.0247184 22.016 0.000324435 24.0695L0.025365 27.3751C0.0378864 29.8293 2.11645 31.8202 4.63326 31.8077L4.5456 19.5743C4.53308 19.5743 4.52056 19.5743 4.50804 19.5743V18.5225L4.53308 15.0666C4.50804 11.4979 8.00152 7.91682 11.6578 7.89178L12.8724 7.87925L31.354 7.6163L32.8691 7.70395C36.5253 7.64135 39.9437 10.8844 40.0063 14.4655L40.1566 18.0467L40.1816 19.0985C40.1691 19.0985 40.1566 19.0985 40.144 19.0985L40.3694 31.3319C42.8862 31.2818 44.9022 29.2408 44.8646 26.7866L44.7895 23.4684Z" fill="#063BA5"/><mask id="mask0_1_251" style="mask-type:luminance" maskUnits="userSpaceOnUse" x="0" y="5" width="45" height="27"><path d="M44.7895 23.4684C44.7519 21.4149 43.2869 19.712 41.3336 19.2237L41.3085 17.9214C41.3085 17.9214 41.3085 17.671 41.296 17.671L41.1708 13.5139C41.0456 9.51956 37.4394 5.85078 33.5452 5.91339L31.2538 5.96347C31.2538 5.97599 13.0852 6.22642 13.0852 6.22642L10.7938 6.25147C6.87459 6.28903 3.30598 10.3209 3.34355 14.1525L3.33103 18.1844V18.4348L3.34355 19.7371C1.40272 20.2629 -0.0247184 22.016 0.000324435 24.0695L0.025365 27.3751C0.0378864 29.8293 2.11645 31.8202 4.63326 31.8077L4.5456 19.5743C4.53308 19.5743 4.52056 19.5743 4.50804 19.5743V18.5225L4.53308 15.0666C4.50804 11.4979 8.00152 7.91682 11.6578 7.89178L12.8724 7.87925L31.354 7.6163L32.8691 7.70395C36.5253 7.64135 39.9437 10.8844 40.0063 14.4655L40.1566 18.0467L40.1816 19.0985C40.1691 19.0985 40.1566 19.0985 40.144 19.0985L40.3694 31.3319C42.8862 31.2818 44.9022 29.2408 44.8646 26.7866L44.7895 23.4684Z" fill="white"/></mask><g mask="url(#mask0_1_251)"><path opacity="0.43" d="M41.0958 32.5088L40.8954 13.0004C40.8954 13.0004 40.8954 6.30146 34.5971 6.17625C28.2989 6.06355 8.85307 6.80232 8.85307 6.80232C8.85307 6.80232 4.32031 7.51604 3.81945 12.5997C3.31859 17.6834 3.86954 32.5213 3.86954 32.5213" fill="#063BA5"/></g><path d="M21.0488 39.4457L12.5467 39.5584C8.28941 39.6085 4.75837 36.1776 4.70828 31.9203L4.49541 15.0539C4.44533 10.7966 7.8762 7.26559 12.1335 7.2155L16.6412 7.15289C16.6412 7.15289 17.405 2.98326 23.7283 0.441406C23.7283 0.441406 24.2417 2.62014 24.2167 4.34809C24.2167 4.34809 26.1951 3.15856 27.7227 3.13352C27.7227 3.13352 28.2361 5.2246 27.1467 7.01516L32.268 6.95255C36.5252 6.90247 40.0563 10.3333 40.1064 14.5906L40.3192 31.4445C40.3693 35.7018 36.9384 39.2328 32.6812 39.2829L25.6942 39.3705" fill="#F4C900"/><mask id="mask1_1_251" style="mask-type:luminance" maskUnits="userSpaceOnUse" x="4" y="0" width="37" height="40"><path d="M21.0488 39.4457L12.5467 39.5584C8.28941 39.6085 4.75837 36.1776 4.70828 31.9203L4.49541 15.0539C4.44533 10.7966 7.8762 7.26559 12.1335 7.2155L16.6412 7.15289C16.6412 7.15289 17.405 2.98326 23.7283 0.441406C23.7283 0.441406 24.2417 2.62014 24.2167 4.34809C24.2167 4.34809 26.1951 3.15856 27.7227 3.13352C27.7227 3.13352 28.2361 5.2246 27.1467 7.01516L32.268 6.95255C36.5252 6.90247 40.0563 10.3333 40.1064 14.5906L40.3192 31.4445C40.3693 35.7018 36.9384 39.2328 32.6812 39.2829L25.6942 39.3705" fill="white"/></mask><g mask="url(#mask1_1_251)"><path opacity="0.84" d="M4.67077 28.6399C4.0447 28.978 -0.763535 4.57368 16.8291 8.14229C16.8291 8.14229 18.7699 2.39495 25.6442 0.429085C29.6761 -0.722887 25.807 -1.8999 25.807 -1.8999L18.7574 0.516735L15.6521 4.71141L14.1745 5.87591L6.68672 6.6272L2.78003 11.761L4.67077 28.6399Z" fill="#FB9F1A"/></g><mask id="mask2_1_251" style="mask-type:luminance" maskUnits="userSpaceOnUse" x="4" y="0" width="37" height="40"><path d="M21.0488 39.4457L12.5467 39.5584C8.28941 39.6085 4.75837 36.1776 4.70828 31.9203L4.49541 15.0539C4.44533 10.7966 7.8762 7.26559 12.1335 7.2155L16.6412 7.15289C16.6412 7.15289 17.405 2.98326 23.7283 0.441406C23.7283 0.441406 24.2417 2.62014 24.2167 4.34809C24.2167 4.34809 26.1951 3.15856 27.7227 3.13352C27.7227 3.13352 28.2361 5.2246 27.1467 7.01516L32.268 6.95255C36.5252 6.90247 40.0563 10.3333 40.1064 14.5906L40.3192 31.4445C40.3693 35.7018 36.9384 39.2328 32.6812 39.2829L25.6942 39.3705" fill="white"/></mask><g mask="url(#mask2_1_251)"><path opacity="0.86" d="M17.0294 24.2445L16.9668 18.4345C16.9668 18.3469 16.9543 18.2843 16.9292 18.2217C16.804 17.7709 16.4284 17.4453 15.9776 17.4579C15.4392 17.4704 15.0009 17.9462 15.0134 18.5347C15.0134 18.5723 15.0886 24.2821 15.0886 24.2821C15.0886 24.3196 15.0886 24.4198 15.0886 24.4448C15.1011 25.0333 15.5393 25.4966 16.0778 25.4966C16.6162 25.4966 17.0544 25.0083 17.0419 24.4198C17.0419 24.3697 17.0294 24.257 17.0294 24.2445Z" fill="#FEA527"/></g><mask id="mask3_1_251" style="mask-type:luminance" maskUnits="userSpaceOnUse" x="4" y="0" width="37" height="40"><path d="M21.0488 39.4457L12.5467 39.5584C8.28941 39.6085 4.75837 36.1776 4.70828 31.9203L4.49541 15.0539C4.44533 10.7966 7.8762 7.26559 12.1335 7.2155L16.6412 7.15289C16.6412 7.15289 17.405 2.98326 23.7283 0.441406C23.7283 0.441406 24.2417 2.62014 24.2167 4.34809C24.2167 4.34809 26.1951 3.15856 27.7227 3.13352C27.7227 3.13352 28.2361 5.2246 27.1467 7.01516L32.268 6.95255C36.5252 6.90247 40.0563 10.3333 40.1064 14.5906L40.3192 31.4445C40.3693 35.7018 36.9384 39.2328 32.6812 39.2829L25.6942 39.3705" fill="white"/></mask><g mask="url(#mask3_1_251)"><path opacity="0.86" d="M10.7811 24.3071L10.7185 19.0982C10.7185 19.0231 10.706 18.9604 10.6809 18.9104C10.5682 18.5097 10.1801 18.2217 9.7293 18.2217C9.19088 18.2342 8.75263 18.6599 8.76515 19.1858C8.76515 19.2234 8.82776 24.3447 8.82776 24.3447C8.82776 24.3697 8.82776 24.4699 8.82776 24.4824C8.84028 25.0083 9.27853 25.4215 9.81695 25.4215C10.3554 25.409 10.7936 24.9833 10.7811 24.4574C10.7936 24.4073 10.7811 24.3196 10.7811 24.3071Z" fill="#FEA527"/></g><mask id="mask4_1_251" style="mask-type:luminance" maskUnits="userSpaceOnUse" x="4" y="0" width="37" height="40"><path d="M21.0488 39.4457L12.5467 39.5584C8.28941 39.6085 4.75837 36.1776 4.70828 31.9203L4.49541 15.0539C4.44533 10.7966 7.8762 7.26559 12.1335 7.2155L16.6412 7.15289C16.6412 7.15289 17.405 2.98326 23.7283 0.441406C23.7283 0.441406 24.2417 2.62014 24.2167 4.34809C24.2167 4.34809 26.1951 3.15856 27.7227 3.13352C27.7227 3.13352 28.2361 5.2246 27.1467 7.01516L32.268 6.95255C36.5252 6.90247 40.0563 10.3333 40.1064 14.5906L40.3192 31.4445C40.3693 35.7018 36.9384 39.2328 32.6812 39.2829L25.6942 39.3705" fill="white"/></mask><g mask="url(#mask4_1_251)"><path opacity="0.86" d="M13.661 25.121L13.5984 19.4113C13.5984 19.3236 13.5859 19.261 13.5608 19.1984C13.4356 18.7602 13.06 18.4346 12.6092 18.4471C12.0708 18.4596 11.6325 18.9229 11.645 19.4989C11.645 19.5365 11.7076 25.1461 11.7076 25.1461C11.7076 25.1837 11.7076 25.2838 11.7076 25.2964C11.7202 25.8723 12.1584 26.3356 12.6968 26.3231C13.2353 26.3106 13.6735 25.8473 13.661 25.2713C13.6735 25.2337 13.661 25.1336 13.661 25.121Z" fill="#FEA527"/></g><mask id="mask5_1_251" style="mask-type:luminance" maskUnits="userSpaceOnUse" x="4" y="0" width="37" height="40"><path d="M21.0488 39.4457L12.5467 39.5584C8.28941 39.6085 4.75837 36.1776 4.70828 31.9203L4.49541 15.0539C4.44533 10.7966 7.8762 7.26559 12.1335 7.2155L16.6412 7.15289C16.6412 7.15289 17.405 2.98326 23.7283 0.441406C23.7283 0.441406 24.2417 2.62014 24.2167 4.34809C24.2167 4.34809 26.1951 3.15856 27.7227 3.13352C27.7227 3.13352 28.2361 5.2246 27.1467 7.01516L32.268 6.95255C36.5252 6.90247 40.0563 10.3333 40.1064 14.5906L40.3192 31.4445C40.3693 35.7018 36.9384 39.2328 32.6812 39.2829L25.6942 39.3705" fill="white"/></mask><g mask="url(#mask5_1_251)"><path opacity="0.86" d="M24.2292 4.34802C24.2292 4.34802 27.2469 3.17101 28.9624 3.78456C30.6778 4.39811 27.6852 2.19434 27.6852 2.19434L25.9447 2.60754L24.2292 4.34802Z" fill="#FB9F1A"/></g><mask id="mask6_1_251" style="mask-type:luminance" maskUnits="userSpaceOnUse" x="4" y="0" width="37" height="40"><path d="M21.0488 39.4457L12.5467 39.5584C8.28941 39.6085 4.75837 36.1776 4.70828 31.9203L4.49541 15.0539C4.44533 10.7966 7.8762 7.26559 12.1335 7.2155L16.6412 7.15289C16.6412 7.15289 17.405 2.98326 23.7283 0.441406C23.7283 0.441406 24.2417 2.62014 24.2167 4.34809C24.2167 4.34809 26.1951 3.15856 27.7227 3.13352C27.7227 3.13352 28.2361 5.2246 27.1467 7.01516L32.268 6.95255C36.5252 6.90247 40.0563 10.3333 40.1064 14.5906L40.3192 31.4445C40.3693 35.7018 36.9384 39.2328 32.6812 39.2829L25.6942 39.3705" fill="white"/></mask><g mask="url(#mask6_1_251)"><path opacity="0.85" d="M27.1591 7.02766C27.1591 7.02766 26.6206 7.77894 26.4078 7.91668C26.1949 8.05441 33.282 7.01514 33.282 7.01514L27.1591 7.02766Z" fill="#FB9F1A"/></g><mask id="mask7_1_251" style="mask-type:luminance" maskUnits="userSpaceOnUse" x="4" y="0" width="37" height="40"><path d="M21.0488 39.4457L12.5467 39.5584C8.28941 39.6085 4.75837 36.1776 4.70828 31.9203L4.49541 15.0539C4.44533 10.7966 7.8762 7.26559 12.1335 7.2155L16.6412 7.15289C16.6412 7.15289 17.405 2.98326 23.7283 0.441406C23.7283 0.441406 24.2417 2.62014 24.2167 4.34809C24.2167 4.34809 26.1951 3.15856 27.7227 3.13352C27.7227 3.13352 28.2361 5.2246 27.1467 7.01516L32.268 6.95255C36.5252 6.90247 40.0563 10.3333 40.1064 14.5906L40.3192 31.4445C40.3693 35.7018 36.9384 39.2328 32.6812 39.2829L25.6942 39.3705" fill="white"/></mask><g mask="url(#mask7_1_251)"><path opacity="0.55" d="M46.4171 11.7481C46.6424 29.203 31.8296 43.5525 13.3354 43.7779C-5.15874 44.0033 -20.3097 30.0419 -20.5351 12.587C-20.7604 -4.86786 -5.94759 -19.2174 12.5466 -19.4428C31.0282 -19.6807 46.2042 -5.70679 46.4171 11.7481Z" fill="url(#paint0_linear_1_251)"/></g><mask id="mask8_1_251" style="mask-type:luminance" maskUnits="userSpaceOnUse" x="4" y="0" width="37" height="40"><path d="M21.0488 39.4457L12.5467 39.5584C8.28941 39.6085 4.75837 36.1776 4.70828 31.9203L4.49541 15.0539C4.44533 10.7966 7.8762 7.26559 12.1335 7.2155L16.6412 7.15289C16.6412 7.15289 17.405 2.98326 23.7283 0.441406C23.7283 0.441406 24.2417 2.62014 24.2167 4.34809C24.2167 4.34809 26.1951 3.15856 27.7227 3.13352C27.7227 3.13352 28.2361 5.2246 27.1467 7.01516L32.268 6.95255C36.5252 6.90247 40.0563 10.3333 40.1064 14.5906L40.3192 31.4445C40.3693 35.7018 36.9384 39.2328 32.6812 39.2829L25.6942 39.3705" fill="white"/></mask><g mask="url(#mask8_1_251)"><path opacity="0.55" d="M58.901 44.6798C59.0888 59.4426 46.5674 71.5633 30.9406 71.7636C15.3139 71.964 2.49191 60.1438 2.30409 45.3935C2.11627 30.6307 14.6377 18.51 30.2645 18.3096C45.9037 18.1093 58.7257 29.917 58.901 44.6798Z" fill="url(#paint1_linear_1_251)"/></g><mask id="mask9_1_251" style="mask-type:luminance" maskUnits="userSpaceOnUse" x="4" y="0" width="37" height="40"><path d="M21.0488 39.4457L12.5467 39.5584C8.28941 39.6085 4.75837 36.1776 4.70828 31.9203L4.49541 15.0539C4.44533 10.7966 7.8762 7.26559 12.1335 7.2155L16.6412 7.15289C16.6412 7.15289 17.405 2.98326 23.7283 0.441406C23.7283 0.441406 24.2417 2.62014 24.2167 4.34809C24.2167 4.34809 26.1951 3.15856 27.7227 3.13352C27.7227 3.13352 28.2361 5.2246 27.1467 7.01516L32.268 6.95255C36.5252 6.90247 40.0563 10.3333 40.1064 14.5906L40.3192 31.4445C40.3693 35.7018 36.9384 39.2328 32.6812 39.2829L25.6942 39.3705" fill="white"/></mask><g mask="url(#mask9_1_251)"><path opacity="0.55" d="M46.7803 8.21723C47.8697 26.8742 32.7438 42.9392 12.985 44.0911C-6.77387 45.2431 -23.6778 31.0688 -24.7672 12.4119C-25.8565 -6.24503 -10.7306 -22.2975 9.02818 -23.462C28.787 -24.6265 45.6909 -10.4272 46.7803 8.21723Z" fill="url(#paint2_linear_1_251)"/></g><mask id="mask10_1_251" style="mask-type:luminance" maskUnits="userSpaceOnUse" x="4" y="0" width="37" height="40"><path d="M21.0488 39.4457L12.5467 39.5584C8.28941 39.6085 4.75837 36.1776 4.70828 31.9203L4.49541 15.0539C4.44533 10.7966 7.8762 7.26559 12.1335 7.2155L16.6412 7.15289C16.6412 7.15289 17.405 2.98326 23.7283 0.441406C23.7283 0.441406 24.2417 2.62014 24.2167 4.34809C24.2167 4.34809 26.1951 3.15856 27.7227 3.13352C27.7227 3.13352 28.2361 5.2246 27.1467 7.01516L32.268 6.95255C36.5252 6.90247 40.0563 10.3333 40.1064 14.5906L40.3192 31.4445C40.3693 35.7018 36.9384 39.2328 32.6812 39.2829L25.6942 39.3705" fill="white"/></mask><g mask="url(#mask10_1_251)"><path d="M48.7711 11.1596C48.7711 11.1596 42.9111 8.192 39.956 6.02579C38.8541 5.2119 34.4341 3.77194 34.5092 3.84707C39.8183 9.58188 38.8792 17.1448 38.1655 27.3248C37.5018 36.7784 36.6003 37.4296 24.1289 37.5422C17.6929 37.6049 13.7111 37.9429 10.1926 36.7033C6.44866 35.3886 5.72242 33.7232 4.23236 28.7647C4.23236 28.7647 2.54197 44.1035 3.11796 44.4791C3.69394 44.8673 11.4071 49.0995 11.4071 49.0995L35.1353 50.6021L49.009 40.3596L48.7711 11.1596Z" fill="#FEA527"/><mask id="mask11_1_251" style="mask-type:luminance" maskUnits="userSpaceOnUse" x="2" y="3" width="48" height="48"><path d="M48.7711 11.1596C48.7711 11.1596 42.9111 8.192 39.956 6.02579C38.8541 5.2119 34.4341 3.77194 34.5092 3.84707C39.8183 9.58188 38.8792 17.1448 38.1655 27.3248C37.5018 36.7784 36.6003 37.4296 24.1289 37.5422C17.6929 37.6049 13.7111 37.9429 10.1926 36.7033C6.44866 35.3886 5.72242 33.7232 4.23236 28.7647C4.23236 28.7647 2.54197 44.1035 3.11796 44.4791C3.69394 44.8673 11.4071 49.0995 11.4071 49.0995L35.1353 50.6021L49.009 40.3596L48.7711 11.1596Z" fill="white"/></mask><g mask="url(#mask11_1_251)"><path opacity="0.59" d="M36.2746 39.9588C37.3014 39.9588 38.2029 39.9463 39.0043 39.9087C40.006 38.4562 40.6822 36.7658 41.1956 35.0754C39.1671 36.0145 37.1386 37.1164 34.9849 37.1915C26.6331 37.4545 20.4851 37.4795 12.1333 37.73C9.65407 37.8051 2.6045 35.0504 1.64035 34.5996C1.61531 34.9377 1.5527 37.5672 5.02114 38.331C15.3012 40.5974 26.0697 39.8962 36.2746 39.9588Z" fill="url(#paint3_linear_1_251)"/></g><mask id="mask12_1_251" style="mask-type:luminance" maskUnits="userSpaceOnUse" x="2" y="3" width="48" height="48"><path d="M48.7711 11.1596C48.7711 11.1596 42.9111 8.192 39.956 6.02579C38.8541 5.2119 34.4341 3.77194 34.5092 3.84707C39.8183 9.58188 38.8792 17.1448 38.1655 27.3248C37.5018 36.7784 36.6003 37.4296 24.1289 37.5422C17.6929 37.6049 13.7111 37.9429 10.1926 36.7033C6.44866 35.3886 5.72242 33.7232 4.23236 28.7647C4.23236 28.7647 2.54197 44.1035 3.11796 44.4791C3.69394 44.8673 11.4071 49.0995 11.4071 49.0995L35.1353 50.6021L49.009 40.3596L48.7711 11.1596Z" fill="white"/></mask><g mask="url(#mask12_1_251)"><g opacity="0.75"><path d="M3.44351 29.1905C3.44351 29.1905 4.88348 38.1558 12.509 37.8178C22.0504 37.392 33.52 36.6533 33.52 36.6533C33.52 36.6533 37.5519 34.1239 38.3533 30.042C39.1546 25.96 40.845 33.0721 40.6948 33.1347C40.5445 33.1974 37.5519 39.0323 37.5519 39.0323L26.2576 40.56L8.00132 39.5708L2.24146 36.7159L3.29325 29.6287" fill="url(#paint4_linear_1_251)"/><path d="M3.44351 29.1905C3.44351 29.1905 4.88348 38.1558 12.509 37.8178C22.0504 37.392 33.52 36.6533 33.52 36.6533C33.52 36.6533 37.5519 34.1239 38.3533 30.042C39.1546 25.96 40.845 33.0721 40.6948 33.1347C40.5445 33.1974 37.5519 39.0323 37.5519 39.0323L26.2576 40.56L8.00132 39.5708L2.24146 36.7159L3.29325 29.6287" stroke="url(#paint5_linear_1_251)" stroke-width="0.0460288" stroke-miterlimit="10"/></g></g></g><mask id="mask13_1_251" style="mask-type:luminance" maskUnits="userSpaceOnUse" x="4" y="0" width="37" height="40"><path d="M21.0488 39.4457L12.5467 39.5584C8.28941 39.6085 4.75837 36.1776 4.70828 31.9203L4.49541 15.0539C4.44533 10.7966 7.8762 7.26559 12.1335 7.2155L16.6412 7.15289C16.6412 7.15289 17.405 2.98326 23.7283 0.441406C23.7283 0.441406 24.2417 2.62014 24.2167 4.34809C24.2167 4.34809 26.1951 3.15856 27.7227 3.13352C27.7227 3.13352 28.2361 5.2246 27.1467 7.01516L32.268 6.95255C36.5252 6.90247 40.0563 10.3333 40.1064 14.5906L40.3192 31.4445C40.3693 35.7018 36.9384 39.2328 32.6812 39.2829L25.6942 39.3705" fill="white"/></mask><g mask="url(#mask13_1_251)"><path opacity="0.55" d="M61.9939 42.1129C62.9205 57.8899 50.1236 71.4632 33.42 72.4398C16.7164 73.4165 2.42946 61.421 1.50287 45.6565C0.576286 29.8795 13.3732 16.3062 30.0768 15.3296C46.7804 14.3529 61.0673 26.3484 61.9939 42.1129Z" fill="url(#paint6_linear_1_251)"/></g><path d="M10.6935 23.3183L10.6435 18.7354C10.6435 18.6728 10.6309 18.6102 10.6059 18.5726C10.4932 18.222 10.1301 17.9591 9.70435 17.9716C9.19097 17.9841 8.79028 18.3598 8.79028 18.8231C8.79028 18.8481 8.84037 23.3558 8.84037 23.3558C8.84037 23.3809 8.84037 23.4685 8.84037 23.4811C8.84037 23.9443 9.2661 24.3075 9.77948 24.3075C10.2929 24.2949 10.6935 23.9193 10.6935 23.456C10.6935 23.4184 10.6935 23.3308 10.6935 23.3183Z" fill="url(#paint7_linear_1_251)"/><path d="M16.9919 23.2184L16.9293 17.8467C16.9293 17.7716 16.9168 17.7089 16.8918 17.6463C16.7791 17.2331 16.416 16.9326 15.9902 16.9326C15.4769 16.9451 15.0762 17.3834 15.0762 17.9218C15.0762 17.9594 15.1388 23.2309 15.1388 23.2309C15.1388 23.2559 15.1388 23.3561 15.1388 23.3812C15.1513 23.9196 15.5645 24.3578 16.0779 24.3453C16.5913 24.3328 16.9919 23.8945 16.9919 23.3561C17.0045 23.3311 16.9919 23.2309 16.9919 23.2184Z" fill="url(#paint8_linear_1_251)"/><path d="M13.6737 23.8317L13.586 16.3689C13.586 16.2562 13.5735 16.1686 13.5485 16.0935C13.4358 15.5175 13.0727 15.0918 12.6469 15.1043C12.1336 15.1168 11.7329 15.7303 11.7454 16.4816C11.7454 16.5317 11.833 23.8693 11.833 23.8693C11.833 23.9068 11.833 24.0446 11.833 24.0696C11.8456 24.8209 12.2588 25.4219 12.7722 25.4219C13.2855 25.4094 13.6862 24.7959 13.6737 24.0446C13.6737 23.9945 13.6737 23.8568 13.6737 23.8317Z" fill="url(#paint9_linear_1_251)"/><path d="M15.8024 23.6565C15.9822 23.6565 16.1279 23.5107 16.1279 23.3309C16.1279 23.1511 15.9822 23.0054 15.8024 23.0054C15.6226 23.0054 15.4768 23.1511 15.4768 23.3309C15.4768 23.5107 15.6226 23.6565 15.8024 23.6565Z" fill="#F8F7C1"/><path d="M9.4915 23.9191C9.7128 23.9191 9.89219 23.7397 9.89219 23.5184C9.89219 23.2971 9.7128 23.1177 9.4915 23.1177C9.27021 23.1177 9.09082 23.2971 9.09082 23.5184C9.09082 23.7397 9.27021 23.9191 9.4915 23.9191Z" fill="#F8F7C1"/><path d="M13.2354 21.753L13.1853 17.7336C13.1853 17.671 13.1728 17.6209 13.1602 17.5833C13.0851 17.2703 12.8472 17.0449 12.5592 17.0449C12.2211 17.0449 11.9457 17.383 11.9582 17.7837C11.9582 17.8087 12.0083 21.7655 12.0083 21.7655C12.0083 21.7905 12.0083 21.8657 12.0083 21.8782C12.0083 22.2789 12.2963 22.6044 12.6343 22.6044C12.9724 22.6044 13.2479 22.2664 13.2354 21.8657C13.2354 21.8406 13.2354 21.7655 13.2354 21.753Z" fill="#F8F7C1"/><path d="M10.0675 22.1288L10.0299 19.2113C10.0299 19.1737 10.0174 19.1362 10.0049 19.0986C9.94225 18.8732 9.72938 18.7104 9.49147 18.7104C9.20348 18.7104 8.96558 18.9609 8.96558 19.2489C8.96558 19.2739 9.00314 22.1413 9.00314 22.1413C9.00314 22.1538 9.00314 22.2039 9.00314 22.2165C9.00314 22.5044 9.24104 22.7423 9.54156 22.7423C9.82955 22.7423 10.0675 22.4919 10.0675 22.2039C10.0675 22.1914 10.0675 22.1288 10.0675 22.1288Z" fill="#F8F7C1"/><path d="M16.3658 21.7655L16.3282 18.848C16.3282 18.8105 16.3157 18.7729 16.3032 18.7353C16.2406 18.5099 16.0277 18.3472 15.7898 18.3472C15.5018 18.3472 15.2639 18.5976 15.2639 18.8856C15.2639 18.9106 15.3015 21.778 15.3015 21.778C15.3015 21.7906 15.3015 21.8406 15.3015 21.8532C15.3015 22.1412 15.5394 22.3791 15.8399 22.3791C16.1279 22.3791 16.3658 22.1286 16.3658 21.8406C16.3658 21.8281 16.3658 21.778 16.3658 21.7655Z" fill="#F8F7C1"/><path d="M12.5342 24.3823C12.7969 24.3823 13.01 24.1693 13.01 23.9065C13.01 23.6437 12.7969 23.4307 12.5342 23.4307C12.2714 23.4307 12.0583 23.6437 12.0583 23.9065C12.0583 24.1693 12.2714 24.3823 12.5342 24.3823Z" fill="#F8F7C1"/><path d="M28.186 23.5307L28.1359 18.9478C28.1359 18.8852 28.1234 18.8226 28.0983 18.7851C27.9856 18.4345 27.6225 18.1715 27.1968 18.184C26.6834 18.1965 26.2827 18.5722 26.2827 19.0355C26.2827 19.0605 26.3328 23.5682 26.3328 23.5682C26.3328 23.5933 26.3328 23.6809 26.3328 23.6935C26.3328 24.1567 26.7585 24.5199 27.2719 24.5199C27.7853 24.5073 28.186 24.1317 28.186 23.6684C28.186 23.6183 28.186 23.5432 28.186 23.5307Z" fill="url(#paint10_linear_1_251)"/><path d="M34.4844 23.4308L34.4218 18.0591C34.4218 17.984 34.4093 17.9213 34.3842 17.8587C34.2715 17.4455 33.9084 17.145 33.4827 17.145C32.9693 17.1575 32.5686 17.5958 32.5686 18.1342C32.5686 18.1718 32.6312 23.4433 32.6312 23.4433C32.6312 23.4683 32.6312 23.5685 32.6312 23.5936C32.6437 24.132 33.0569 24.5702 33.5703 24.5577C34.0837 24.5452 34.4844 24.1069 34.4844 23.5685C34.4969 23.5435 34.4844 23.4433 34.4844 23.4308Z" fill="url(#paint11_linear_1_251)"/><path d="M31.1661 24.0441L31.0785 16.5813C31.0785 16.4686 31.066 16.381 31.0409 16.3059C30.9282 15.7299 30.5651 15.3042 30.1394 15.3167C29.626 15.3292 29.2253 15.9427 29.2378 16.694C29.2378 16.7441 29.3255 24.0817 29.3255 24.0817C29.3255 24.1192 29.3255 24.257 29.3255 24.282C29.338 25.0333 29.7512 25.6343 30.2646 25.6343C30.778 25.6218 31.1787 25.0083 31.1661 24.257C31.1661 24.1944 31.1661 24.0692 31.1661 24.0441Z" fill="url(#paint12_linear_1_251)"/><path d="M33.2948 23.8689C33.4746 23.8689 33.6203 23.7231 33.6203 23.5433C33.6203 23.3635 33.4746 23.2178 33.2948 23.2178C33.115 23.2178 32.9692 23.3635 32.9692 23.5433C32.9692 23.7231 33.115 23.8689 33.2948 23.8689Z" fill="#F8F7C1"/><path d="M26.9839 24.1314C27.2052 24.1314 27.3846 23.9521 27.3846 23.7308C27.3846 23.5095 27.2052 23.3301 26.9839 23.3301C26.7626 23.3301 26.5833 23.5095 26.5833 23.7308C26.5833 23.9521 26.7626 24.1314 26.9839 24.1314Z" fill="#F8F7C1"/><path d="M30.7278 21.9654L30.6777 17.946C30.6777 17.8834 30.6652 17.8333 30.6527 17.7957C30.5775 17.4827 30.3396 17.2573 30.0516 17.2573C29.7136 17.2573 29.4381 17.5954 29.4506 17.9961C29.4506 18.0211 29.5007 21.9779 29.5007 21.9779C29.5007 22.0029 29.5007 22.0781 29.5007 22.0906C29.5007 22.4913 29.7887 22.8168 30.1268 22.8168C30.4648 22.8168 30.7403 22.4788 30.7278 22.0781C30.7278 22.0405 30.7278 21.9779 30.7278 21.9654Z" fill="#F8F7C1"/><path d="M27.5599 22.3285L27.5223 19.411C27.5223 19.3734 27.5098 19.3359 27.4973 19.2983C27.4347 19.0729 27.2218 18.9102 26.9839 18.9102C26.6959 18.9102 26.458 19.1606 26.458 19.4486C26.458 19.4736 26.4956 22.341 26.4956 22.341C26.4956 22.3535 26.4956 22.4036 26.4956 22.4162C26.4956 22.7042 26.7335 22.9421 27.034 22.9421C27.322 22.9421 27.5599 22.6916 27.5599 22.4036C27.5599 22.3911 27.5599 22.341 27.5599 22.3285Z" fill="#F8F7C1"/><path d="M33.8582 21.9779L33.8207 19.0604C33.8207 19.0229 33.8081 18.9853 33.7956 18.9477C33.733 18.7223 33.5202 18.5596 33.2822 18.5596C32.9943 18.5596 32.7563 18.81 32.7563 19.098C32.7563 19.123 32.7939 21.9904 32.7939 21.9904C32.7939 22.003 32.7939 22.0531 32.7939 22.0656C32.7939 22.3536 33.0318 22.5915 33.3323 22.5915C33.6203 22.5915 33.8582 22.341 33.8582 22.0531C33.8582 22.0405 33.8582 21.9779 33.8582 21.9779Z" fill="#F8F7C1"/><path d="M30.0266 24.5825C30.2894 24.5825 30.5024 24.3695 30.5024 24.1067C30.5024 23.8439 30.2894 23.6309 30.0266 23.6309C29.7638 23.6309 29.5508 23.8439 29.5508 24.1067C29.5508 24.3695 29.7638 24.5825 30.0266 24.5825Z" fill="#F8F7C1"/><path d="M19.8718 32.5343C19.8718 32.5343 15.3641 33.1729 14.9885 29.5918" stroke="#063BA5" stroke-width="0.656374" stroke-miterlimit="10" stroke-linecap="round"/><path d="M16.1531 29.1909C16.1531 29.1909 14.7006 28.8528 14.1371 30.1926" stroke="#063BA5" stroke-width="0.656374" stroke-miterlimit="10" stroke-linecap="round"/><path d="M56.9916 27.5438C56.5389 27.5438 56.203 27.4854 55.984 27.3686C55.7795 27.2371 55.6773 27.0546 55.6773 26.8209V13.0422C55.6773 12.458 55.9475 12.1659 56.4878 12.1659H60.8252C62.7529 12.1659 64.1548 12.5456 65.0311 13.305C65.9219 14.0644 66.3673 15.1378 66.3673 16.5252C66.3673 17.1532 66.2724 17.7081 66.0826 18.19C65.9073 18.672 65.6371 19.0809 65.272 19.4168C64.9215 19.7526 64.4761 20.0155 63.9358 20.2054V20.293C64.184 20.3806 64.4323 20.5705 64.6806 20.8625C64.9434 21.1546 65.1479 21.4905 65.2939 21.8702L67.0683 26.2952C67.1413 26.4558 67.1924 26.6019 67.2217 26.7333C67.2655 26.8647 67.2874 26.9743 67.2874 27.0619C67.2874 27.2517 67.1924 27.3832 67.0026 27.4562C66.8127 27.5146 66.4842 27.5438 66.0168 27.5438H65.1187C64.7974 27.5438 64.5199 27.5073 64.2863 27.4343C64.0672 27.3467 63.8993 27.1641 63.7824 26.8866L62.1395 22.8998C62.0227 22.5931 61.8766 22.3448 61.7014 22.155C61.5407 21.9651 61.3217 21.8264 61.0442 21.7388C60.7667 21.6365 60.387 21.5854 59.9051 21.5854H59.0727V26.8209C59.0727 27.0546 58.9705 27.2371 58.766 27.3686C58.5616 27.4854 58.2257 27.5438 57.7583 27.5438H56.9916ZM59.0727 18.9348H61.0004C61.6722 18.9348 62.1541 18.7815 62.4462 18.4748C62.7529 18.1681 62.9062 17.6716 62.9062 16.9852C62.9062 16.2988 62.7529 15.8023 62.4462 15.4956C62.1541 15.1889 61.6722 15.0356 61.0004 15.0356H59.0727V18.9348ZM71.7858 27.6752C70.6028 27.6752 69.7631 27.3686 69.2666 26.7552C68.7847 26.1272 68.5437 25.3678 68.5437 24.477C68.5437 24.0243 68.6094 23.5643 68.7409 23.0969C68.8869 22.615 69.1717 22.1696 69.5952 21.7607C70.0187 21.3518 70.6467 21.0232 71.4791 20.7749C72.3261 20.5267 73.4433 20.4025 74.8307 20.4025V19.7453C74.8307 19.4387 74.7723 19.1904 74.6554 19.0005C74.5386 18.8107 74.356 18.672 74.1078 18.5843C73.8595 18.4821 73.5309 18.431 73.122 18.431C72.5963 18.431 72.1216 18.4894 71.6981 18.6062C71.2892 18.7085 70.9387 18.818 70.6467 18.9348C70.3692 19.0517 70.1574 19.1101 70.0114 19.1101C69.9092 19.1101 69.8069 19.0444 69.7047 18.9129C69.6025 18.7669 69.5076 18.5989 69.4199 18.4091C69.3469 18.2046 69.2885 18.0075 69.2447 17.8176C69.2009 17.6278 69.179 17.4817 69.179 17.3795C69.179 17.1751 69.3031 16.9852 69.5514 16.81C69.7996 16.6347 70.1282 16.4741 70.5371 16.328C70.946 16.182 71.3988 16.0725 71.8953 15.9995C72.3918 15.9118 72.8811 15.868 73.363 15.868C74.2246 15.868 74.9548 15.9629 75.5536 16.1528C76.1523 16.328 76.6342 16.5836 76.9993 16.9195C77.379 17.2408 77.6492 17.6278 77.8099 18.0805C77.9851 18.5186 78.0727 19.0005 78.0727 19.5263V23.6446C78.0727 24.404 78.0946 24.9881 78.1384 25.397C78.1823 25.7913 78.2261 26.0907 78.2699 26.2952C78.3137 26.485 78.3356 26.6603 78.3356 26.8209C78.3356 26.9524 78.2334 27.0619 78.0289 27.1495C77.8391 27.2371 77.5981 27.3101 77.306 27.3686C77.0285 27.427 76.7511 27.4708 76.4736 27.5C76.2107 27.5146 76.0136 27.5219 75.8821 27.5219C75.6485 27.5219 75.4732 27.4416 75.3564 27.2809C75.2542 27.1057 75.1812 26.9012 75.1373 26.6676C75.0935 26.4193 75.0497 26.2003 75.0059 26.0104C74.9621 26.098 74.8088 26.2806 74.5459 26.5581C74.2976 26.8209 73.9398 27.0765 73.4725 27.3248C73.0198 27.5584 72.4575 27.6752 71.7858 27.6752ZM72.8591 25.1123C73.1366 25.1123 73.3995 25.0539 73.6478 24.937C73.9106 24.8202 74.1443 24.6595 74.3487 24.4551C74.5532 24.236 74.7138 23.9951 74.8307 23.7322V22.5274C74.3049 22.5274 73.8522 22.5639 73.4725 22.6369C73.0928 22.7099 72.7715 22.8122 72.5087 22.9436C72.2604 23.075 72.0705 23.243 71.9391 23.4474C71.8223 23.6519 71.7639 23.8855 71.7639 24.1484C71.7639 24.4259 71.8515 24.6595 72.0267 24.8494C72.2166 25.0246 72.494 25.1123 72.8591 25.1123ZM84.5989 27.6752C83.8103 27.6752 83.102 27.4489 82.4741 26.9962C81.8607 26.5434 81.3715 25.879 81.0064 25.0027C80.6559 24.1119 80.4807 23.0312 80.4807 21.7607C80.4807 20.5632 80.6632 19.5263 81.0283 18.6501C81.3934 17.7738 81.9191 17.0947 82.6055 16.6128C83.3065 16.1163 84.1462 15.868 85.1247 15.868C85.6796 15.868 86.1397 15.941 86.5047 16.0871C86.8698 16.2331 87.1619 16.3865 87.381 16.5471V11.7059C87.381 11.4723 87.4832 11.297 87.6877 11.1802C87.9067 11.0487 88.2499 10.983 88.7172 10.983H89.3306C89.7979 10.983 90.1338 11.0487 90.3383 11.1802C90.5573 11.297 90.6669 11.4723 90.6669 11.7059V23.6884C90.6669 24.331 90.6815 24.8421 90.7107 25.2218C90.7545 25.6015 90.791 25.9082 90.8202 26.1418C90.864 26.3609 90.8859 26.5507 90.8859 26.7114C90.8859 26.8866 90.7764 27.0327 90.5573 27.1495C90.3529 27.2517 90.0973 27.3321 89.7906 27.3905C89.4985 27.4343 89.2138 27.4708 88.9363 27.5C88.6734 27.5146 88.4836 27.5219 88.3667 27.5219C88.1915 27.5219 88.0601 27.4854 87.9724 27.4124C87.8848 27.3248 87.8118 27.1714 87.7534 26.9524C87.695 26.7333 87.6219 26.4193 87.5343 26.0104C87.3737 26.3317 87.1473 26.6165 86.8552 26.8647C86.5778 27.113 86.2492 27.3101 85.8695 27.4562C85.4898 27.6022 85.0663 27.6752 84.5989 27.6752ZM85.5628 25.0246C85.9863 25.0246 86.3441 24.8932 86.6362 24.6303C86.9429 24.3675 87.1911 24.0681 87.381 23.7322V18.8472C87.2203 18.745 87.0086 18.6501 86.7457 18.5624C86.4828 18.4748 86.1762 18.431 85.8257 18.431C85.1539 18.431 84.6501 18.7158 84.3142 19.2853C83.9783 19.8403 83.8103 20.6654 83.8103 21.7607C83.8103 22.8268 83.9564 23.6373 84.2484 24.1922C84.5405 24.7472 84.9786 25.0246 85.5628 25.0246ZM94.5536 27.5438C94.0863 27.5438 93.7431 27.4854 93.524 27.3686C93.3196 27.2371 93.2173 27.0546 93.2173 26.8209V16.7223C93.2173 16.4887 93.3196 16.3134 93.524 16.1966C93.7431 16.0652 94.0863 15.9995 94.5536 15.9995H95.167C95.6343 15.9995 95.9702 16.0652 96.1746 16.1966C96.3937 16.3134 96.5032 16.4887 96.5032 16.7223V26.8209C96.5032 27.0546 96.3937 27.2371 96.1746 27.3686C95.9702 27.4854 95.6343 27.5438 95.167 27.5438H94.5536ZM94.8603 14.9261C94.2907 14.9261 93.8745 14.8677 93.6116 14.7508C93.3634 14.634 93.2392 14.4587 93.2392 14.2251V12.5164C93.2392 12.2828 93.3634 12.1075 93.6116 11.9907C93.8745 11.8739 94.2907 11.8154 94.8603 11.8154C95.4298 11.8154 95.8387 11.8739 96.087 11.9907C96.3499 12.1075 96.4813 12.2828 96.4813 12.5164V14.2251C96.4813 14.4587 96.3499 14.634 96.087 14.7508C95.8387 14.8677 95.4298 14.9261 94.8603 14.9261ZM103.987 27.6752C102.249 27.6752 100.928 27.1641 100.022 26.1418C99.1169 25.1196 98.6642 23.6592 98.6642 21.7607C98.6642 19.8476 99.1169 18.3872 100.022 17.3795C100.928 16.3719 102.249 15.868 103.987 15.868C105.725 15.868 107.039 16.3719 107.93 17.3795C108.836 18.3872 109.288 19.8476 109.288 21.7607C109.288 23.6592 108.836 25.1196 107.93 26.1418C107.039 27.1641 105.725 27.6752 103.987 27.6752ZM103.987 25.1123C104.674 25.1123 105.17 24.8275 105.477 24.2579C105.798 23.6884 105.959 22.856 105.959 21.7607C105.959 20.6654 105.798 19.8403 105.477 19.2853C105.17 18.7158 104.674 18.431 103.987 18.431C103.301 18.431 102.797 18.7158 102.476 19.2853C102.155 19.8403 101.994 20.6654 101.994 21.7607C101.994 22.856 102.155 23.6884 102.476 24.2579C102.797 24.8275 103.301 25.1123 103.987 25.1123ZM112.516 27.5C111.932 27.5 111.64 27.2079 111.64 26.6238V12.845C111.64 12.6114 111.742 12.4361 111.946 12.3193C112.166 12.1878 112.501 12.1221 112.954 12.1221H113.721C114.188 12.1221 114.524 12.1878 114.728 12.3193C114.933 12.4361 115.035 12.6114 115.035 12.845V24.6303H119.745C120.183 24.6303 120.402 24.9954 120.402 25.7256V26.4047C120.402 27.1349 120.183 27.5 119.745 27.5H112.516ZM123.433 27.5438C122.966 27.5438 122.623 27.4854 122.404 27.3686C122.199 27.2371 122.097 27.0546 122.097 26.8209V16.7223C122.097 16.4887 122.199 16.3134 122.404 16.1966C122.623 16.0652 122.966 15.9995 123.433 15.9995H124.047C124.514 15.9995 124.85 16.0652 125.054 16.1966C125.273 16.3134 125.383 16.4887 125.383 16.7223V26.8209C125.383 27.0546 125.273 27.2371 125.054 27.3686C124.85 27.4854 124.514 27.5438 124.047 27.5438H123.433ZM123.74 14.9261C123.17 14.9261 122.754 14.8677 122.491 14.7508C122.243 14.634 122.119 14.4587 122.119 14.2251V12.5164C122.119 12.2828 122.243 12.1075 122.491 11.9907C122.754 11.8739 123.17 11.8154 123.74 11.8154C124.31 11.8154 124.718 11.8739 124.967 11.9907C125.23 12.1075 125.361 12.2828 125.361 12.5164V14.2251C125.361 14.4587 125.23 14.634 124.967 14.7508C124.718 14.8677 124.31 14.9261 123.74 14.9261ZM129.231 27.5438C128.763 27.5438 128.42 27.4854 128.201 27.3686C127.997 27.2371 127.894 27.0546 127.894 26.8209V19.8549C127.894 19.2123 127.872 18.7012 127.829 18.3215C127.799 17.9272 127.763 17.6205 127.719 17.4014C127.69 17.1824 127.675 16.9925 127.675 16.8319C127.675 16.6712 127.778 16.5398 127.982 16.4376C128.201 16.3353 128.457 16.2623 128.749 16.2185C129.055 16.1601 129.34 16.1236 129.603 16.109C129.881 16.0798 130.078 16.0652 130.195 16.0652C130.37 16.0652 130.501 16.109 130.589 16.1966C130.676 16.2696 130.749 16.4084 130.808 16.6128C130.881 16.8173 130.954 17.124 131.027 17.5329C131.246 17.2554 131.516 16.9925 131.837 16.7443C132.173 16.4814 132.546 16.2696 132.955 16.109C133.378 15.9483 133.824 15.868 134.291 15.868C135.036 15.868 135.649 15.9995 136.131 16.2623C136.628 16.5106 136.993 16.8976 137.226 17.4233C137.46 17.9345 137.577 18.5989 137.577 19.4168V26.8209C137.577 27.0546 137.467 27.2371 137.248 27.3686C137.044 27.4854 136.708 27.5438 136.241 27.5438H135.627C135.16 27.5438 134.817 27.4854 134.598 27.3686C134.393 27.2371 134.291 27.0546 134.291 26.8209V19.8987C134.291 19.4752 134.196 19.1466 134.006 18.9129C133.816 18.6647 133.488 18.5405 133.02 18.5405C132.787 18.5405 132.546 18.5989 132.297 18.7158C132.064 18.818 131.845 18.964 131.64 19.1539C131.45 19.3437 131.297 19.5628 131.18 19.8111V26.8209C131.18 27.0546 131.071 27.2371 130.852 27.3686C130.647 27.4854 130.311 27.5438 129.844 27.5438H129.231ZM144.557 32.144C143.389 32.144 142.417 32.0272 141.643 31.7935C140.869 31.5745 140.293 31.2386 139.913 30.7859C139.533 30.3332 139.343 29.7782 139.343 29.121C139.343 28.7413 139.416 28.3908 139.562 28.0696C139.723 27.7483 139.949 27.4635 140.241 27.2152C140.548 26.9524 140.913 26.7406 141.337 26.58L141.359 26.4923C141.052 26.3317 140.818 26.1126 140.658 25.8352C140.497 25.5431 140.417 25.2145 140.417 24.8494C140.417 24.4405 140.533 24.0681 140.767 23.7322C141.001 23.3963 141.322 23.1115 141.731 22.8779C141.191 22.5858 140.76 22.1915 140.439 21.695C140.117 21.1838 139.957 20.5413 139.957 19.7673C139.957 18.818 140.168 18.0586 140.592 17.489C141.015 16.9195 141.585 16.5106 142.301 16.2623C143.016 15.9995 143.805 15.868 144.666 15.868C144.958 15.868 145.243 15.8826 145.521 15.9118C145.813 15.941 146.09 15.9849 146.353 16.0433H149.88C150.114 16.0433 150.282 16.1309 150.384 16.3061C150.486 16.4814 150.537 16.7589 150.537 17.1386V17.511C150.537 18.1973 150.362 18.5405 150.011 18.5405C149.953 18.5405 149.851 18.5332 149.705 18.5186C149.573 18.4894 149.435 18.4602 149.288 18.431C149.142 18.4018 149.033 18.3726 148.96 18.3434L148.916 18.431C149.004 18.5186 149.084 18.6428 149.157 18.8034C149.23 18.9494 149.281 19.1101 149.31 19.2853C149.354 19.446 149.376 19.6066 149.376 19.7673C149.376 20.6435 149.179 21.3591 148.785 21.914C148.39 22.4544 147.85 22.856 147.164 23.1188C146.492 23.3671 145.74 23.4912 144.907 23.4912C144.455 23.4912 144.119 23.5204 143.9 23.5789C143.681 23.6227 143.535 23.6957 143.462 23.7979C143.403 23.9001 143.374 24.0316 143.374 24.1922C143.374 24.3821 143.469 24.5354 143.659 24.6522C143.849 24.7545 144.104 24.8348 144.425 24.8932C144.761 24.9516 145.134 25.01 145.543 25.0685C145.952 25.1123 146.375 25.1707 146.813 25.2437C147.383 25.3459 147.923 25.5066 148.434 25.7256C148.96 25.9447 149.383 26.266 149.705 26.6895C150.041 27.113 150.209 27.6899 150.209 28.42C150.209 29.1648 149.975 29.8147 149.508 30.3697C149.04 30.9392 148.383 31.3773 147.536 31.684C146.689 31.9907 145.696 32.144 144.557 32.144ZM144.798 29.5811C145.557 29.5811 146.119 29.4788 146.485 29.2744C146.864 29.0845 147.054 28.829 147.054 28.5077C147.054 28.3762 147.018 28.2594 146.945 28.1572C146.872 28.0549 146.747 27.96 146.572 27.8724C146.412 27.7994 146.2 27.7337 145.937 27.6752C145.674 27.6168 145.353 27.5657 144.973 27.5219C144.608 27.4781 144.177 27.4416 143.681 27.4124C143.301 27.5438 143.009 27.7191 142.804 27.9381C142.6 28.1572 142.498 28.3762 142.498 28.5953C142.498 28.7851 142.578 28.9531 142.739 29.0991C142.899 29.2598 143.148 29.3766 143.483 29.4496C143.819 29.5372 144.257 29.5811 144.798 29.5811ZM144.666 21.1473C144.973 21.1473 145.251 21.0962 145.499 20.994C145.747 20.8917 145.944 20.7384 146.09 20.534C146.236 20.3149 146.309 20.0301 146.309 19.6796C146.309 19.3291 146.236 19.0517 146.09 18.8472C145.944 18.6281 145.747 18.4675 145.499 18.3653C145.251 18.2631 144.973 18.2119 144.666 18.2119C144.374 18.2119 144.097 18.2631 143.834 18.3653C143.586 18.4675 143.389 18.6281 143.242 18.8472C143.096 19.0517 143.023 19.3291 143.023 19.6796C143.023 20.2054 143.184 20.5851 143.505 20.8187C143.827 21.0378 144.214 21.1473 144.666 21.1473ZM156.591 27.6752C154.853 27.6752 153.532 27.1641 152.626 26.1418C151.721 25.1196 151.268 23.6592 151.268 21.7607C151.268 19.8476 151.721 18.3872 152.626 17.3795C153.532 16.3719 154.853 15.868 156.591 15.868C158.329 15.868 159.643 16.3719 160.534 17.3795C161.44 18.3872 161.892 19.8476 161.892 21.7607C161.892 23.6592 161.44 25.1196 160.534 26.1418C159.643 27.1641 158.329 27.6752 156.591 27.6752ZM156.591 25.1123C157.278 25.1123 157.774 24.8275 158.081 24.2579C158.402 23.6884 158.563 22.856 158.563 21.7607C158.563 20.6654 158.402 19.8403 158.081 19.2853C157.774 18.7158 157.278 18.431 156.591 18.431C155.905 18.431 155.401 18.7158 155.08 19.2853C154.758 19.8403 154.598 20.6654 154.598 21.7607C154.598 22.856 154.758 23.6884 155.08 24.2579C155.401 24.8275 155.905 25.1123 156.591 25.1123Z" fill="#063BA5"/><defs><linearGradient id="paint0_linear_1_251" x1="1.81303" y1="35.1403" x2="1.95315" y2="34.851" gradientUnits="userSpaceOnUse"><stop stop-color="#F4E9BE" stop-opacity="0.7713"/><stop offset="8.98393e-09" stop-color="#F4E5B5" stop-opacity="0.7629"/><stop offset="5.13032e-08" stop-color="#F6D591" stop-opacity="0.7231"/><stop offset="9.88545e-08" stop-color="#F7C671" stop-opacity="0.6784"/><stop offset="1.5146e-07" stop-color="#F8BA55" stop-opacity="0.629"/><stop offset="2.10898e-07" stop-color="#F9B03F" stop-opacity="0.5731"/><stop offset="2.80267e-07" stop-color="#FAA82E" stop-opacity="0.5079"/><stop offset="3.66058e-07" stop-color="#FBA323" stop-opacity="0.4272"/><stop offset="4.8639e-07" stop-color="#FBA01C" stop-opacity="0.3141"/><stop offset="8.2048e-07" stop-color="#FB9F1A" stop-opacity="0"/><stop offset="0.0312612" stop-color="#F9B142" stop-opacity="0.0675522"/><stop offset="0.066351" stop-color="#F8C268" stop-opacity="0.1434"/><stop offset="0.103" stop-color="#F6D087" stop-opacity="0.2226"/><stop offset="0.1411" stop-color="#F5DB9F" stop-opacity="0.3049"/><stop offset="0.1812" stop-color="#F5E3B1" stop-opacity="0.3916"/><stop offset="0.2247" stop-color="#F4E8BB" stop-opacity="0.4855"/><stop offset="0.2777" stop-color="#F4E9BE" stop-opacity="0.6"/><stop offset="0.4657" stop-color="#F4E9BE" stop-opacity="0.7609"/><stop offset="0.4966" stop-color="#F4E9BE" stop-opacity="0.7874"/><stop offset="0.7131" stop-color="#F4E9BE" stop-opacity="0.3583"/><stop offset="0.7425" stop-color="#F4E9BE" stop-opacity="0.3"/><stop offset="0.7696" stop-color="#F4E8B6" stop-opacity="0.2684"/><stop offset="0.8125" stop-color="#F4E49F" stop-opacity="0.2184"/><stop offset="0.8659" stop-color="#F4DD7A" stop-opacity="0.1562"/><stop offset="0.9276" stop-color="#F4D546" stop-opacity="0.0842792"/><stop offset="0.9957" stop-color="#F4CA04" stop-opacity="0.01"/><stop offset="1" stop-color="#F4C900" stop-opacity="0"/></linearGradient><linearGradient id="paint1_linear_1_251" x1="28.7101" y1="48.9395" x2="28.8502" y2="48.6502" gradientUnits="userSpaceOnUse"><stop offset="0.1117" stop-color="#FB9F1A" stop-opacity="0"/><stop offset="0.3793" stop-color="#FDA322" stop-opacity="0.4673"/><stop offset="0.5011" stop-color="#FEA527" stop-opacity="0.68"/><stop offset="0.6913" stop-color="#FDA824" stop-opacity="0.4207"/><stop offset="0.8241" stop-color="#FBB01B" stop-opacity="0.2397"/><stop offset="0.9391" stop-color="#F7BE0C" stop-opacity="0.0829871"/><stop offset="1" stop-color="#F4C900" stop-opacity="0"/></linearGradient><linearGradient id="paint2_linear_1_251" x1="-15.0359" y1="-12.8407" x2="37.0487" y2="33.4776" gradientUnits="userSpaceOnUse"><stop stop-color="#F4E9BE" stop-opacity="0.7713"/><stop offset="8.98393e-09" stop-color="#F4E5B5" stop-opacity="0.7629"/><stop offset="5.13032e-08" stop-color="#F6D591" stop-opacity="0.7231"/><stop offset="9.88545e-08" stop-color="#F7C671" stop-opacity="0.6784"/><stop offset="1.5146e-07" stop-color="#F8BA55" stop-opacity="0.629"/><stop offset="2.10898e-07" stop-color="#F9B03F" stop-opacity="0.5731"/><stop offset="2.80267e-07" stop-color="#FAA82E" stop-opacity="0.5079"/><stop offset="3.66058e-07" stop-color="#FBA323" stop-opacity="0.4272"/><stop offset="4.8639e-07" stop-color="#FBA01C" stop-opacity="0.3141"/><stop offset="8.2048e-07" stop-color="#FB9F1A" stop-opacity="0"/><stop offset="0.0312612" stop-color="#F9B142" stop-opacity="0.0675522"/><stop offset="0.066351" stop-color="#F8C268" stop-opacity="0.1434"/><stop offset="0.103" stop-color="#F6D087" stop-opacity="0.2226"/><stop offset="0.1411" stop-color="#F5DB9F" stop-opacity="0.3049"/><stop offset="0.1812" stop-color="#F5E3B1" stop-opacity="0.3916"/><stop offset="0.2247" stop-color="#F4E8BB" stop-opacity="0.4855"/><stop offset="0.2777" stop-color="#F4E9BE" stop-opacity="0.6"/><stop offset="0.4657" stop-color="#F4E9BE" stop-opacity="0.7609"/><stop offset="0.4966" stop-color="#F4E9BE" stop-opacity="0.7874"/><stop offset="0.7131" stop-color="#F4E9BE" stop-opacity="0.3583"/><stop offset="0.7425" stop-color="#F4E9BE" stop-opacity="0.3"/><stop offset="0.7696" stop-color="#F4E8B6" stop-opacity="0.2684"/><stop offset="0.8125" stop-color="#F4E49F" stop-opacity="0.2184"/><stop offset="0.8659" stop-color="#F4DD7A" stop-opacity="0.1562"/><stop offset="0.9276" stop-color="#F4D546" stop-opacity="0.0842792"/><stop offset="0.9957" stop-color="#F4CA04" stop-opacity="0.01"/><stop offset="1" stop-color="#F4C900" stop-opacity="0"/></linearGradient><linearGradient id="paint3_linear_1_251" x1="21.3461" y1="29.5194" x2="21.4892" y2="40.1643" gradientUnits="userSpaceOnUse"><stop offset="0.7151" stop-color="white" stop-opacity="0"/><stop offset="1" stop-color="white" stop-opacity="0.6"/></linearGradient><linearGradient id="paint4_linear_1_251" x1="21.0934" y1="28.2548" x2="21.7542" y2="40.7922" gradientUnits="userSpaceOnUse"><stop offset="0.7151" stop-color="white" stop-opacity="0"/><stop offset="1" stop-color="white" stop-opacity="0.5"/></linearGradient><linearGradient id="paint5_linear_1_251" x1="2.2247" y1="34.7014" x2="40.7295" y2="34.6446" gradientUnits="userSpaceOnUse"><stop offset="0.1117" stop-color="#FB9F1A" stop-opacity="0"/><stop offset="0.1484" stop-color="#FBA222" stop-opacity="0.065125"/><stop offset="0.2041" stop-color="#FBAB37" stop-opacity="0.1641"/><stop offset="0.2718" stop-color="#FCB959" stop-opacity="0.2845"/><stop offset="0.3491" stop-color="#FDCD89" stop-opacity="0.4219"/><stop offset="0.4333" stop-color="#FEE7C5" stop-opacity="0.5715"/><stop offset="0.5056" stop-color="white" stop-opacity="0.7"/><stop offset="0.6001" stop-color="#FFFEFC" stop-opacity="0.5661"/><stop offset="0.6662" stop-color="#FEFCF3" stop-opacity="0.4726"/><stop offset="0.7235" stop-color="#FEF9E4" stop-opacity="0.3914"/><stop offset="0.776" stop-color="#FDF5CE" stop-opacity="0.3171"/><stop offset="0.8251" stop-color="#FCEFB1" stop-opacity="0.2477"/><stop offset="0.8717" stop-color="#FAE78E" stop-opacity="0.1817"/><stop offset="0.9163" stop-color="#F8DE65" stop-opacity="0.1185"/><stop offset="0.9583" stop-color="#F6D536" stop-opacity="0.0591003"/><stop offset="0.9988" stop-color="#F4C902" stop-opacity="0.01"/><stop offset="1" stop-color="#F4C900" stop-opacity="0"/></linearGradient><linearGradient id="paint6_linear_1_251" x1="9.73227" y1="24.3115" x2="53.765" y2="63.4692" gradientUnits="userSpaceOnUse"><stop offset="0.1117" stop-color="#FB9F1A" stop-opacity="0"/><stop offset="0.3793" stop-color="#FDA322" stop-opacity="0.4673"/><stop offset="0.5011" stop-color="#FEA527" stop-opacity="0.68"/><stop offset="0.6913" stop-color="#FDA824" stop-opacity="0.4207"/><stop offset="0.8241" stop-color="#FBB01B" stop-opacity="0.2397"/><stop offset="0.9391" stop-color="#F7BE0C" stop-opacity="0.0829871"/><stop offset="1" stop-color="#F4C900" stop-opacity="0"/></linearGradient><linearGradient id="paint7_linear_1_251" x1="3.08657" y1="34.8648" x2="3.21489" y2="34.5998" gradientUnits="userSpaceOnUse"><stop offset="0.00446913" stop-color="#093FAC"/><stop offset="0.8595" stop-color="#013382"/><stop offset="1" stop-color="#00317B"/></linearGradient><linearGradient id="paint8_linear_1_251" x1="8.00416" y1="37.247" x2="8.13249" y2="36.982" gradientUnits="userSpaceOnUse"><stop offset="0.00446913" stop-color="#093FAC"/><stop offset="0.8595" stop-color="#013382"/><stop offset="1" stop-color="#00317B"/></linearGradient><linearGradient id="paint9_linear_1_251" x1="5.14658" y1="35.8626" x2="5.2749" y2="35.5977" gradientUnits="userSpaceOnUse"><stop offset="0.00446913" stop-color="#093FAC"/><stop offset="0.8595" stop-color="#013382"/><stop offset="1" stop-color="#00317B"/></linearGradient><linearGradient id="paint10_linear_1_251" x1="20.5786" y1="35.0737" x2="20.7069" y2="34.8088" gradientUnits="userSpaceOnUse"><stop offset="0.00446913" stop-color="#093FAC"/><stop offset="0.8595" stop-color="#013382"/><stop offset="1" stop-color="#00317B"/></linearGradient><linearGradient id="paint11_linear_1_251" x1="25.4962" y1="37.4559" x2="25.6245" y2="37.1909" gradientUnits="userSpaceOnUse"><stop offset="0.00446913" stop-color="#093FAC"/><stop offset="0.8595" stop-color="#013382"/><stop offset="1" stop-color="#00317B"/></linearGradient><linearGradient id="paint12_linear_1_251" x1="22.6386" y1="36.0716" x2="22.7669" y2="35.8066" gradientUnits="userSpaceOnUse"><stop offset="0.00446913" stop-color="#093FAC"/><stop offset="0.8595" stop-color="#013382"/><stop offset="1" stop-color="#00317B"/></linearGradient></defs></svg>